<svg xmlns="http://www.w3.org/2000/svg" xmlns:xlink="http://www.w3.org/1999/xlink" version="1.0" x="0" y="0" width="2400" height="1047.5813516423798" viewBox="75.66020217895507 83.82141128540039 188.67959564208985 82.35717742919923" preserveAspectRatio="xMidYMid meet" color-interpolation-filters="sRGB"><g><defs><linearGradient id="92" x1="0%" y1="0%" x2="100%" y2="0%"><stop offset="0%" stop-color="#fa71cd"></stop> <stop offset="100%" stop-color="#9b59b6"></stop></linearGradient><linearGradient id="93" x1="0%" y1="0%" x2="100%" y2="0%"><stop offset="0%" stop-color="#f9d423"></stop> <stop offset="100%" stop-color="#f83600"></stop></linearGradient><linearGradient id="94" x1="0%" y1="0%" x2="100%" y2="0%"><stop offset="0%" stop-color="#0064d2"></stop> <stop offset="100%" stop-color="#1cb0f6"></stop></linearGradient><linearGradient id="95" x1="0%" y1="0%" x2="100%" y2="0%"><stop offset="0%" stop-color="#f00978"></stop> <stop offset="100%" stop-color="#3f51b1"></stop></linearGradient><linearGradient id="96" x1="0%" y1="0%" x2="100%" y2="0%"><stop offset="0%" stop-color="#7873f5"></stop> <stop offset="100%" stop-color="#ec77ab"></stop></linearGradient><linearGradient id="97" x1="0%" y1="0%" x2="100%" y2="0%"><stop offset="0%" stop-color="#f9d423"></stop> <stop offset="100%" stop-color="#e14fad"></stop></linearGradient><linearGradient id="98" x1="0%" y1="0%" x2="100%" y2="0%"><stop offset="0%" stop-color="#009efd"></stop> <stop offset="100%" stop-color="#2af598"></stop></linearGradient><linearGradient id="99" x1="0%" y1="0%" x2="100%" y2="0%"><stop offset="0%" stop-color="#ffcc00"></stop> <stop offset="100%" stop-color="#00b140"></stop></linearGradient><linearGradient id="100" x1="0%" y1="0%" x2="100%" y2="0%"><stop offset="0%" stop-color="#d51007"></stop> <stop offset="100%" stop-color="#ff8177"></stop></linearGradient><linearGradient id="102" x1="0%" y1="0%" x2="100%" y2="0%"><stop offset="0%" stop-color="#a2b6df"></stop> <stop offset="100%" stop-color="#0c3483"></stop></linearGradient><linearGradient id="103" x1="0%" y1="0%" x2="100%" y2="0%"><stop offset="0%" stop-color="#7ac5d8"></stop> <stop offset="100%" stop-color="#eea2a2"></stop></linearGradient><linearGradient id="104" x1="0%" y1="0%" x2="100%" y2="0%"><stop offset="0%" stop-color="#00ecbc"></stop> <stop offset="100%" stop-color="#007adf"></stop></linearGradient><linearGradient id="105" x1="0%" y1="0%" x2="100%" y2="0%"><stop offset="0%" stop-color="#b88746"></stop> <stop offset="100%" stop-color="#fdf5a6"></stop></linearGradient></defs><g fill="#fff" class="icon-text-wrapper icon-svg-group iconsvg" transform="translate(77.51000213623047,85.67121124267578)"><g class="iconsvg-imagesvg" transform="translate(0,0)"><g><rect fill="#fff" fill-opacity="0" stroke-width="2" x="0" y="0" width="60" height="78.65757734661771" class="image-rect"></rect> <svg filter="url(#colors6911705784)" x="0" y="0" width="60" height="78.65757734661771" filtersec="colorsf1573226249" class="image-svg-svg primary" style="overflow: visible;"><svg xmlns="http://www.w3.org/2000/svg" viewBox="0 0 76.27999877929688 100"><path d="M17.35 32v20C31.32 44 45 35.94 58.93 27.88V12l17.35 10v15.9l-17.35 10C45 56 31.32 64.06 17.35 72.12V88L0 78V22L38.14 0 55.5 10 17.35 32zm58.93 46V58l-17.35-9.48V68L20.78 90l17.36 10 38.14-22z" fill="#333" fill-rule="evenodd"></path></svg></svg> <defs><filter id="colors6911705784"><feColorMatrix type="matrix" values="0 0 0 0 0.99609375  0 0 0 0 0.99609375  0 0 0 0 0.99609375  0 0 0 1 0" class="icon-feColorMatrix "></feColorMatrix></filter> <filter id="colorsf1573226249"><feColorMatrix type="matrix" values="0 0 0 0 0.99609375  0 0 0 0 0.99609375  0 0 0 0 0.99609375  0 0 0 1 0" class="icon-fecolormatrix"></feColorMatrix></filter> <filter id="colorsb1478167462"><feColorMatrix type="matrix" values="0 0 0 0 0  0 0 0 0 0  0 0 0 0 0  0 0 0 1 0" class="icon-fecolormatrix"></feColorMatrix></filter></defs></g></g> <g transform="translate(67,15.028787612915039)"><g fill-rule="" class="tp-name iconsvg-namesvg" transform="translate(0,0)"><g transform="scale(1)"><g><path d="M10.1-7.78Q11.38-7.54 12.21-6.5 13.03-5.45 13.03-4.11L13.03-4.11Q13.03-2.89 12.44-1.97 11.84-1.04 10.71-0.52 9.58 0 8.04 0L8.04 0 1.5 0 1.5-15.16 7.76-15.16Q9.3-15.16 10.42-14.66 11.54-14.16 12.11-13.27 12.69-12.38 12.69-11.25L12.69-11.25Q12.69-9.93 11.98-9.04 11.27-8.15 10.1-7.78L10.1-7.78ZM4.54-12.71L4.54-8.91 7.32-8.91Q8.41-8.91 8.99-9.4 9.58-9.88 9.58-10.8L9.58-10.8Q9.58-11.71 8.99-12.21 8.41-12.71 7.32-12.71L7.32-12.71 4.54-12.71ZM7.6-2.48Q8.71-2.48 9.33-3 9.95-3.52 9.95-4.48L9.95-4.48Q9.95-5.45 9.3-6.01 8.65-6.56 7.54-6.56L7.54-6.56 4.54-6.56 4.54-2.48 7.6-2.48ZM22.51 0.15Q20.38 0.15 18.6-0.85 16.81-1.85 15.77-3.62 14.73-5.39 14.73-7.62L14.73-7.62Q14.73-9.84 15.77-11.61 16.81-13.38 18.6-14.38 20.38-15.38 22.51-15.38L22.51-15.38Q24.66-15.38 26.43-14.38 28.2-13.38 29.23-11.61 30.26-9.84 30.26-7.62L30.26-7.62Q30.26-5.39 29.23-3.62 28.2-1.85 26.42-0.85 24.63 0.15 22.51 0.15L22.51 0.15ZM22.51-2.56Q23.87-2.56 24.92-3.18 25.96-3.8 26.55-4.95 27.13-6.1 27.13-7.62L27.13-7.62Q27.13-9.15 26.55-10.29 25.96-11.43 24.92-12.03 23.87-12.64 22.51-12.64L22.51-12.64Q21.14-12.64 20.08-12.03 19.03-11.43 18.44-10.29 17.86-9.15 17.86-7.62L17.86-7.62Q17.86-6.1 18.44-4.95 19.03-3.8 20.08-3.18 21.14-2.56 22.51-2.56L22.51-2.56ZM35.56-15.16L35.56-2.41 40.56-2.41 40.56 0 32.52 0 32.52-15.16 35.56-15.16ZM47.79-15.16Q50.18-15.16 51.99-14.23 53.81-13.29 54.8-11.57 55.79-9.84 55.79-7.56L55.79-7.56Q55.79-5.28 54.8-3.57 53.81-1.87 51.99-0.93 50.18 0 47.79 0L47.79 0 42.49 0 42.49-15.16 47.79-15.16ZM47.68-2.59Q50.07-2.59 51.38-3.89 52.68-5.19 52.68-7.56L52.68-7.56Q52.68-9.93 51.38-11.26 50.07-12.6 47.68-12.6L47.68-12.6 45.53-12.6 45.53-2.59 47.68-2.59Z" transform="translate(-1.5, 15.380000114440918)"></path></g> <g fill="#fff" transform="translate(0,18.530000686645508)"><g transform="scale(1)"><path d="M6.73 0.15Q5.15 0.15 3.88-0.39 2.61-0.93 1.87-1.96 1.13-2.98 1.11-4.37L1.11-4.37 4.37-4.37Q4.43-3.43 5.03-2.89 5.63-2.35 6.67-2.35L6.67-2.35Q7.73-2.35 8.34-2.86 8.95-3.37 8.95-4.19L8.95-4.19Q8.95-4.87 8.54-5.3 8.12-5.73 7.51-5.98 6.89-6.23 5.8-6.54L5.8-6.54Q4.32-6.97 3.4-7.4 2.48-7.82 1.81-8.68 1.15-9.54 1.15-10.97L1.15-10.97Q1.15-12.32 1.82-13.32 2.5-14.32 3.71-14.85 4.93-15.38 6.5-15.38L6.5-15.38Q8.84-15.38 10.31-14.24 11.77-13.1 11.93-11.06L11.93-11.06 8.58-11.06Q8.54-11.84 7.92-12.35 7.3-12.86 6.28-12.86L6.28-12.86Q5.39-12.86 4.86-12.4 4.32-11.95 4.32-11.08L4.32-11.08Q4.32-10.47 4.72-10.07 5.13-9.67 5.72-9.42 6.32-9.17 7.41-8.84L7.41-8.84Q8.88-8.41 9.82-7.97 10.75-7.54 11.43-6.67 12.1-5.8 12.1-4.39L12.1-4.39Q12.1-3.17 11.47-2.13 10.84-1.09 9.62-0.47 8.41 0.15 6.73 0.15L6.73 0.15ZM21.77 0.15Q19.64 0.15 17.86-0.85 16.08-1.85 15.03-3.62 13.99-5.39 13.99-7.62L13.99-7.62Q13.99-9.84 15.03-11.61 16.08-13.38 17.86-14.38 19.64-15.38 21.77-15.38L21.77-15.38Q23.92-15.38 25.69-14.38 27.46-13.38 28.49-11.61 29.52-9.84 29.52-7.62L29.52-7.62Q29.52-5.39 28.49-3.62 27.46-1.85 25.68-0.85 23.9 0.15 21.77 0.15L21.77 0.15ZM21.77-2.56Q23.14-2.56 24.18-3.18 25.22-3.8 25.81-4.95 26.39-6.1 26.39-7.62L26.39-7.62Q26.39-9.15 25.81-10.29 25.22-11.43 24.18-12.03 23.14-12.64 21.77-12.64L21.77-12.64Q20.4-12.64 19.34-12.03 18.29-11.43 17.7-10.29 17.12-9.15 17.12-7.62L17.12-7.62Q17.12-6.1 17.7-4.95 18.29-3.8 19.34-3.18 20.4-2.56 21.77-2.56L21.77-2.56ZM34.82-15.16L34.82-2.41 39.82-2.41 39.82 0 31.78 0 31.78-15.16 34.82-15.16ZM41.71-15.16L44.75-15.16 44.75-5.78Q44.75-4.24 45.55-3.42 46.36-2.61 47.81-2.61L47.81-2.61Q49.29-2.61 50.09-3.42 50.9-4.24 50.9-5.78L50.9-5.78 50.9-15.16 53.96-15.16 53.96-5.8Q53.96-3.87 53.12-2.53 52.29-1.19 50.89-0.52 49.49 0.15 47.77 0.15L47.77 0.15Q46.08 0.15 44.7-0.52 43.32-1.19 42.51-2.53 41.71-3.87 41.71-5.8L41.71-5.8 41.71-15.16ZM56.09-15.16L67.21-15.16 67.21-12.71 63.17-12.71 63.17 0 60.13 0 60.13-12.71 56.09-12.71 56.09-15.16ZM69.43-15.16L72.47-15.16 72.47 0 69.43 0 69.43-15.16ZM82.51 0.15Q80.38 0.15 78.6-0.85 76.81-1.85 75.77-3.62 74.73-5.39 74.73-7.62L74.73-7.62Q74.73-9.84 75.77-11.61 76.81-13.38 78.6-14.38 80.38-15.38 82.51-15.38L82.51-15.38Q84.66-15.38 86.43-14.38 88.2-13.38 89.23-11.61 90.26-9.84 90.26-7.62L90.26-7.62Q90.26-5.39 89.23-3.62 88.2-1.85 86.42-0.85 84.63 0.15 82.51 0.15L82.51 0.15ZM82.51-2.56Q83.87-2.56 84.92-3.18 85.96-3.8 86.55-4.95 87.13-6.1 87.13-7.62L87.13-7.62Q87.13-9.15 86.55-10.29 85.96-11.43 84.92-12.03 83.87-12.64 82.51-12.64L82.51-12.64Q81.14-12.64 80.08-12.03 79.03-11.43 78.44-10.29 77.86-9.15 77.86-7.62L77.86-7.62Q77.86-6.1 78.44-4.95 79.03-3.8 80.08-3.18 81.14-2.56 82.51-2.56L82.51-2.56ZM105.49-15.18L105.49 0 102.45 0 95.56-10.41 95.56 0 92.52 0 92.52-15.18 95.56-15.18 102.45-4.76 102.45-15.18 105.49-15.18ZM113.72 0.15Q112.14 0.15 110.87-0.39 109.59-0.93 108.86-1.96 108.12-2.98 108.1-4.37L108.1-4.37 111.35-4.37Q111.42-3.43 112.02-2.89 112.61-2.35 113.66-2.35L113.66-2.35Q114.72-2.35 115.33-2.86 115.94-3.37 115.94-4.19L115.94-4.19Q115.94-4.87 115.52-5.3 115.11-5.73 114.49-5.98 113.87-6.23 112.79-6.54L112.79-6.54Q111.31-6.97 110.39-7.4 109.46-7.82 108.8-8.68 108.14-9.54 108.14-10.97L108.14-10.97Q108.14-12.32 108.81-13.32 109.49-14.32 110.7-14.85 111.92-15.38 113.48-15.38L113.48-15.38Q115.83-15.38 117.3-14.24 118.76-13.1 118.91-11.06L118.91-11.06 115.57-11.06Q115.52-11.84 114.91-12.35 114.29-12.86 113.27-12.86L113.27-12.86Q112.38-12.86 111.84-12.4 111.31-11.95 111.31-11.08L111.31-11.08Q111.31-10.47 111.71-10.07 112.11-9.67 112.71-9.42 113.31-9.17 114.4-8.84L114.4-8.84Q115.87-8.41 116.81-7.97 117.74-7.54 118.41-6.67 119.09-5.8 119.09-4.39L119.09-4.39Q119.09-3.17 118.46-2.13 117.83-1.09 116.61-0.47 115.39 0.15 113.72 0.15L113.72 0.15Z" transform="translate(-1.1100000143051147, 15.380000114440918)"></path></g></g></g></g> <g fill-rule="" class="tp-slogan iconsvg-slogansvg" fill="#fff" transform="translate(4.154998779296875,40.060001373291016)"><rect width="0"></rect> <rect x="112.66999816894531" width="0"></rect> <g transform="translate(0,0)"><g transform="scale(1)"><path d="M0.92-8.36L5.65-8.36L5.65-7.48L2.02-7.48L2.02-4.66L4.97-4.66L4.97-3.77L2.02-3.77L2.02 0L0.92 0L0.92-8.36ZM10.76 0.08Q9.60 0.08 8.64-0.46Q7.68-1.01 7.12-1.99Q6.56-2.96 6.56-4.19L6.56-4.19Q6.56-5.41 7.12-6.39Q7.68-7.37 8.64-7.91Q9.60-8.46 10.76-8.46L10.76-8.46Q11.94-8.46 12.90-7.91Q13.86-7.37 14.41-6.40Q14.96-5.42 14.96-4.19L14.96-4.19Q14.96-2.95 14.41-1.98Q13.86-1.01 12.90-0.46Q11.94 0.08 10.76 0.08L10.76 0.08ZM10.76-0.86Q11.64-0.86 12.34-1.27Q13.04-1.68 13.45-2.44Q13.85-3.19 13.85-4.19L13.85-4.19Q13.85-5.20 13.45-5.95Q13.04-6.70 12.35-7.10Q11.65-7.51 10.76-7.51L10.76-7.51Q9.88-7.51 9.18-7.10Q8.48-6.70 8.08-5.95Q7.68-5.20 7.68-4.19L7.68-4.19Q7.68-3.19 8.08-2.44Q8.48-1.68 9.19-1.27Q9.89-0.86 10.76-0.86L10.76-0.86ZM22.12 0L20.81 0L18.82-3.42L17.50-3.42L17.50 0L16.40 0L16.40-8.36L19.10-8.36Q20.05-8.36 20.71-8.04Q21.36-7.72 21.68-7.16Q22.01-6.61 22.01-5.90L22.01-5.90Q22.01-5.04 21.51-4.38Q21.01-3.72 20.02-3.50L20.02-3.50L22.12 0ZM17.50-7.46L17.50-4.30L19.10-4.30Q19.99-4.30 20.44-4.73Q20.88-5.17 20.88-5.90L20.88-5.90Q20.88-6.65 20.44-7.06Q20.00-7.46 19.10-7.46L19.10-7.46L17.50-7.46ZM31.09-4.31Q31.55-4.24 31.93-3.94Q32.30-3.64 32.53-3.19Q32.75-2.75 32.75-2.24L32.75-2.24Q32.75-1.61 32.42-1.10Q32.10-0.59 31.48-0.29Q30.86 0 30.02 0L30.02 0L26.90 0L26.90-8.36L29.90-8.36Q30.76-8.36 31.36-8.08Q31.96-7.80 32.26-7.32Q32.56-6.84 32.56-6.24L32.56-6.24Q32.56-5.50 32.15-5.01Q31.75-4.52 31.09-4.31L31.09-4.31ZM28.00-7.46L28.00-4.75L29.83-4.75Q30.60-4.75 31.02-5.11Q31.44-5.47 31.44-6.11L31.44-6.11Q31.44-6.74 31.02-7.10Q30.60-7.46 29.81-7.46L29.81-7.46L28.00-7.46ZM29.93-0.90Q30.74-0.90 31.20-1.28Q31.66-1.67 31.66-2.35L31.66-2.35Q31.66-3.05 31.18-3.45Q30.70-3.85 29.89-3.85L29.89-3.85L28.00-3.85L28.00-0.90L29.93-0.90ZM38.76-7.48L35.35-7.48L35.35-4.68L38.40-4.68L38.40-3.78L35.35-3.78L35.35-0.90L38.76-0.90L38.76 0L34.26 0L34.26-8.38L38.76-8.38L38.76-7.48ZM39.90-8.36L45.56-8.36L45.56-7.48L43.28-7.48L43.28 0L42.19 0L42.19-7.48L39.90-7.48L39.90-8.36ZM46.39-8.36L52.06-8.36L52.06-7.48L49.78-7.48L49.78 0L48.68 0L48.68-7.48L46.39-7.48L46.39-8.36ZM57.90-7.48L54.49-7.48L54.49-4.68L57.54-4.68L57.54-3.78L54.49-3.78L54.49-0.90L57.90-0.90L57.90 0L53.40 0L53.40-8.38L57.90-8.38L57.90-7.48ZM65.27 0L63.96 0L61.97-3.42L60.65-3.42L60.65 0L59.56 0L59.56-8.36L62.26-8.36Q63.20-8.36 63.86-8.04Q64.51-7.72 64.84-7.16Q65.16-6.61 65.16-5.90L65.16-5.90Q65.16-5.04 64.66-4.38Q64.16-3.72 63.17-3.50L63.17-3.50L65.27 0ZM60.65-7.46L60.65-4.30L62.26-4.30Q63.14-4.30 63.59-4.73Q64.03-5.17 64.03-5.90L64.03-5.90Q64.03-6.65 63.59-7.06Q63.16-7.46 62.26-7.46L62.26-7.46L60.65-7.46ZM70.06-8.36L74.78-8.36L74.78-7.48L71.15-7.48L71.15-4.66L74.10-4.66L74.10-3.77L71.15-3.77L71.15 0L70.06 0L70.06-8.36ZM76.08-8.36L77.17-8.36L77.17-3.07Q77.17-1.96 77.72-1.42Q78.26-0.88 79.24-0.88L79.24-0.88Q80.20-0.88 80.74-1.42Q81.29-1.96 81.29-3.07L81.29-3.07L81.29-8.36L82.38-8.36L82.38-3.08Q82.38-2.04 81.96-1.33Q81.54-0.61 80.83-0.26Q80.11 0.08 79.22 0.08L79.22 0.08Q78.34 0.08 77.62-0.26Q76.91-0.61 76.49-1.33Q76.08-2.04 76.08-3.08L76.08-3.08L76.08-8.36ZM83.69-8.36L89.35-8.36L89.35-7.48L87.07-7.48L87.07 0L85.98 0L85.98-7.48L83.69-7.48L83.69-8.36ZM90.67-8.36L91.76-8.36L91.76-3.07Q91.76-1.96 92.31-1.42Q92.86-0.88 93.83-0.88L93.83-0.88Q94.79-0.88 95.33-1.42Q95.88-1.96 95.88-3.07L95.88-3.07L95.88-8.36L96.97-8.36L96.97-3.08Q96.97-2.04 96.55-1.33Q96.13-0.61 95.42-0.26Q94.70 0.08 93.82 0.08L93.82 0.08Q92.93 0.08 92.21-0.26Q91.50-0.61 91.09-1.33Q90.67-2.04 90.67-3.08L90.67-3.08L90.67-8.36ZM104.51 0L103.20 0L101.21-3.42L99.89-3.42L99.89 0L98.80 0L98.80-8.36L101.50-8.36Q102.44-8.36 103.10-8.04Q103.75-7.72 104.08-7.16Q104.40-6.61 104.40-5.90L104.40-5.90Q104.40-5.04 103.90-4.38Q103.40-3.72 102.41-3.50L102.41-3.50L104.51 0ZM99.89-7.46L99.89-4.30L101.50-4.30Q102.38-4.30 102.83-4.73Q103.27-5.17 103.27-5.90L103.27-5.90Q103.27-6.65 102.83-7.06Q102.40-7.46 101.50-7.46L101.50-7.46L99.89-7.46ZM110.59-7.48L107.18-7.48L107.18-4.68L110.23-4.68L110.23-3.78L107.18-3.78L107.18-0.90L110.59-0.90L110.59 0L106.09 0L106.09-8.38L110.59-8.38L110.59-7.48Z" transform="translate(-0.924, 8.46)"></path></g></g></g></g></g><defs v-gra="od"></defs></g></svg>